# xmcd
# 
# Track frame offsets:
#     150
#     14925
#     30525
#     45675
#     65475
#     80775
#     95550
#     112950
#     126750
#     141750
#     159900
#     175650
# 
# Disc length: 2543
# 
# Revision: 2
# Processed by: cddbd v1.5.2PL0 Copyright (c) Steve Scherf et al.
# Submitted via: fre:ac v1.0.27
# 
DISCID=9f09ed0c
DTITLE=演奏曲 - 中國的浪漫 4／港劇名曲
DYEAR=0
DGENRE=演奏
TTITLE0=名劍風流
TTITLE1=情冷情熱
TTITLE2=上海灘
TTITLE3=喝采
TTITLE4=人在旅途灑淚時
TTITLE5=小李飛刀
TTITLE6=萬般情
TTITLE7=李後主
TTITLE8=天蠶變
TTITLE9=眼淚為你流
TTITLE10=網中人
TTITLE11=楚留香
EXTD=
EXTT0=
EXTT1=
EXTT2=
EXTT3=
EXTT4=
EXTT5=
EXTT6=
EXTT7=
EXTT8=
EXTT9=
EXTT10=
EXTT11=
PLAYORDER=
